<svg xmlns="http://www.w3.org/2000/svg" viewBox="0 0 1200 900" role="img" aria-labelledby="t d"><title id="t">combo primera ruta</title><desc id="d">Ilustración conceptual El Errante</desc><defs><linearGradient id="g" x1="0" y1="0" x2="1" y2="1"><stop stop-color="#191817"/><stop offset="1" stop-color="#312a26"/></linearGradient><radialGradient id="warm"><stop stop-color="#d86b45"/><stop offset="1" stop-color="#A5432D"/></radialGradient><filter id="s"><feDropShadow dx="0" dy="24" stdDeviation="24" flood-opacity=".28"/></filter></defs><rect width="1200" height="900" fill="#F2ECE1"/><rect x="0" y="0" width="1200" height="900" fill="url(#g)"/><circle cx="600" cy="465" r="315" fill="#9a6b42" opacity=".4"/><circle cx="600" cy="435" r="285" fill="#d9a66c" stroke="#e8c294" stroke-width="34" filter="url(#s)"/><circle cx="600" cy="435" r="238" fill="#b83e2c"/><path d="M430 310c95-68 243-62 340 12-53 19-90 65-97 121-80-25-167-17-241 22-37-47-38-108-2-155z" fill="#f0dfbd" opacity=".95"/><g fill="#7d2420"><circle cx="560" cy="560" r="24"/><circle cx="639" cy="413" r="31"/><circle cx="718" cy="516" r="38"/><circle cx="407" cy="369" r="27"/><circle cx="486" cy="472" r="34"/><circle cx="565" cy="575" r="41"/><circle cx="644" cy="428" r="30"/></g><g fill="#49633c"><ellipse cx="580" cy="350" rx="12" ry="28" transform="rotate(10 580 350)"/><ellipse cx="711" cy="421" rx="12" ry="28" transform="rotate(53 711 421)"/><ellipse cx="422" cy="492" rx="12" ry="28" transform="rotate(96 422 492)"/><ellipse cx="553" cy="563" rx="12" ry="28" transform="rotate(139 553 563)"/><ellipse cx="684" cy="354" rx="12" ry="28" transform="rotate(2 684 354)"/></g><path d="M210 735c228 62 552 62 780 0" stroke="#C5A36A" stroke-width="4" fill="none" opacity=".65"/></svg>