<svg xmlns="http://www.w3.org/2000/svg" viewBox="0 0 1200 900" role="img" aria-labelledby="t d"><title id="t">pizza neo</title><desc id="d">Ilustración conceptual El Errante</desc><defs><linearGradient id="g" x1="0" y1="0" x2="1" y2="1"><stop stop-color="#191817"/><stop offset="1" stop-color="#312a26"/></linearGradient><radialGradient id="warm"><stop stop-color="#d86b45"/><stop offset="1" stop-color="#A5432D"/></radialGradient><filter id="s"><feDropShadow dx="0" dy="24" stdDeviation="24" flood-opacity=".28"/></filter></defs><rect width="1200" height="900" fill="#F2ECE1"/><rect x="0" y="0" width="1200" height="900" fill="url(#g)"/><circle cx="600" cy="465" r="315" fill="#9a6b42" opacity=".4"/><circle cx="600" cy="435" r="285" fill="#d9a66c" stroke="#e8c294" stroke-width="34" filter="url(#s)"/><circle cx="600" cy="435" r="238" fill="#b83e2c"/><path d="M430 310c95-68 243-62 340 12-53 19-90 65-97 121-80-25-167-17-241 22-37-47-38-108-2-155z" fill="#f0dfbd" opacity=".95"/><g fill="#7d2420"><circle cx="564" cy="364" r="24"/><circle cx="643" cy="467" r="31"/><circle cx="722" cy="570" r="38"/><circle cx="411" cy="423" r="27"/><circle cx="490" cy="526" r="34"/><circle cx="569" cy="379" r="41"/><circle cx="648" cy="482" r="30"/></g><g fill="#49633c"><ellipse cx="794" cy="564" rx="12" ry="28" transform="rotate(164 794 564)"/><ellipse cx="505" cy="355" rx="12" ry="28" transform="rotate(27 505 355)"/><ellipse cx="636" cy="426" rx="12" ry="28" transform="rotate(70 636 426)"/><ellipse cx="767" cy="497" rx="12" ry="28" transform="rotate(113 767 497)"/><ellipse cx="478" cy="568" rx="12" ry="28" transform="rotate(156 478 568)"/></g><path d="M210 735c228 62 552 62 780 0" stroke="#C5A36A" stroke-width="4" fill="none" opacity=".65"/></svg>