<svg xmlns="http://www.w3.org/2000/svg" viewBox="0 0 1200 900" role="img" aria-labelledby="t d">
<title id="t">Pizza La Errante</title><desc id="d">Pizza insignia con chorizo, cebolla caramelizada, quesos y reducción de panela con maracuyá.</desc>
<defs>
  <linearGradient id="bg" x1="0" y1="0" x2="1" y2="1"><stop stop-color="#151311"/><stop offset=".55" stop-color="#2d211b"/><stop offset="1" stop-color="#191817"/></linearGradient>
  <radialGradient id="crust" cx="42%" cy="35%"><stop stop-color="#f0cf8d"/><stop offset=".55" stop-color="#c78b47"/><stop offset=".82" stop-color="#8b522b"/><stop offset="1" stop-color="#4a2818"/></radialGradient>
  <linearGradient id="sauce" x1="0" y1="0" x2="1" y2="1"><stop stop-color="#c84b37"/><stop offset="1" stop-color="#7E2F20"/></linearGradient>
  <filter id="s"><feDropShadow dx="0" dy="28" stdDeviation="24" flood-opacity=".55"/></filter>
  <filter id="g"><feGaussianBlur stdDeviation="14"/></filter>
</defs>
<rect width="1200" height="900" fill="url(#bg)"/>
<ellipse cx="600" cy="430" rx="430" ry="350" fill="#A5432D" opacity=".13" filter="url(#g)"/>
<ellipse cx="610" cy="710" rx="410" ry="80" fill="#050504" opacity=".5"/>
<g transform="translate(145 70) rotate(-3 460 370)" filter="url(#s)">
  <ellipse cx="470" cy="390" rx="430" ry="340" fill="url(#crust)"/>
  <ellipse cx="470" cy="390" rx="365" ry="282" fill="url(#sauce)"/>
  <g fill="#F2ECE1"><ellipse cx="295" cy="255" rx="82" ry="57"/><ellipse cx="520" cy="205" rx="74" ry="52"/><ellipse cx="670" cy="335" rx="88" ry="59"/><ellipse cx="340" cy="470" rx="80" ry="55"/><ellipse cx="585" cy="535" rx="83" ry="55"/></g>
  <g fill="#713124" stroke="#4c2018" stroke-width="7"><circle cx="385" cy="215" r="47"/><circle cx="615" cy="250" r="50"/><circle cx="255" cy="405" r="44"/><circle cx="500" cy="410" r="49"/><circle cx="720" cy="475" r="45"/></g>
  <g fill="none" stroke="#87562f" stroke-width="20" stroke-linecap="round"><path d="M205 325c105-78 160 83 270 4"/><path d="M430 560c95-90 170 54 282-31"/><path d="M560 365c70-50 115 34 184-11"/></g>
  <g fill="#d8b468"><path d="M180 190l90 26-45 70z"/><path d="M468 300l95 17-57 74z"/><path d="M655 570l93 18-59 70z"/></g>
  <g fill="#49633c"><ellipse cx="220" cy="505" rx="15" ry="38" transform="rotate(-30 220 505)"/><ellipse cx="438" cy="150" rx="15" ry="37" transform="rotate(22 438 150)"/><ellipse cx="690" cy="230" rx="15" ry="39" transform="rotate(58 690 230)"/></g>
  <g fill="none" stroke="#e6a342" stroke-width="12" stroke-linecap="round" opacity=".92"><path d="M230 145c145 95 300 120 498 67"/><path d="M170 510c175 86 356 90 570 24"/><path d="M345 625c125 25 258 14 372-44"/></g>
  <g fill="#3d2015" opacity=".5"><circle cx="188" cy="258" r="12"/><circle cx="755" cy="355" r="14"/><circle cx="430" cy="665" r="13"/><circle cx="635" cy="120" r="10"/></g>
</g>
<path d="M140 805h920" stroke="#C5A36A" stroke-width="4" opacity=".45"/>
<g transform="translate(1010 690)" opacity=".74"><circle r="66" fill="none" stroke="#A5432D" stroke-width="11" stroke-dasharray="360 52" transform="rotate(-18)"/><path d="M-34-22h68M-34 0h54M-34 22h68" stroke="#A5432D" stroke-width="10" stroke-linecap="round"/></g>
</svg>
