<svg xmlns="http://www.w3.org/2000/svg" viewBox="0 0 1200 900" role="img" aria-labelledby="t d">
<title id="t">Pizza El Errante lista para terminar en casa</title><desc id="d">Pizza artesanal sobre una bandeja, junto a su empaque y un horno doméstico encendido.</desc>
<defs>
  <linearGradient id="bg" x1="0" y1="0" x2="1" y2="1"><stop stop-color="#2b2420"/><stop offset="1" stop-color="#151312"/></linearGradient>
  <linearGradient id="counter" x1="0" y1="0" x2="1" y2="0"><stop stop-color="#b78a58"/><stop offset=".5" stop-color="#d4b17a"/><stop offset="1" stop-color="#8b603c"/></linearGradient>
  <radialGradient id="crust" cx="42%" cy="35%"><stop stop-color="#f2d69e"/><stop offset=".62" stop-color="#cf9750"/><stop offset="1" stop-color="#7d4828"/></radialGradient>
  <radialGradient id="oven"><stop stop-color="#ffe1a2"/><stop offset=".38" stop-color="#e98d38"/><stop offset=".8" stop-color="#A5432D"/><stop offset="1" stop-color="#38140e"/></radialGradient>
  <filter id="s"><feDropShadow dx="0" dy="24" stdDeviation="20" flood-opacity=".45"/></filter>
  <filter id="g"><feGaussianBlur stdDeviation="14"/></filter>
</defs>
<rect width="1200" height="900" fill="url(#bg)"/>
<circle cx="970" cy="170" r="185" fill="#A5432D" opacity=".14" filter="url(#g)"/>
<path d="M0 525h1200v375H0z" fill="url(#counter)"/>
<g transform="translate(735 145)" filter="url(#s)"><rect x="0" y="0" width="350" height="350" rx="34" fill="#11100f" stroke="#4b4039" stroke-width="12"/><rect x="38" y="50" width="274" height="215" rx="20" fill="#241610"/><ellipse cx="175" cy="180" rx="112" ry="80" fill="url(#oven)" filter="url(#g)"/><path d="M112 248c27-80 57-113 75-188 32 54 27 91 63 128 32 34 24 74-9 93H148c-47-17-53-47-36-33z" fill="url(#oven)"/><rect x="62" y="292" width="225" height="20" rx="10" fill="#66645D"/></g>
<g transform="translate(75 125)" filter="url(#s)"><rect x="0" y="0" width="290" height="355" rx="18" fill="#F2ECE1" stroke="#191817" stroke-width="10"/><circle cx="145" cy="115" r="62" fill="none" stroke="#A5432D" stroke-width="12" stroke-dasharray="340 52" transform="rotate(-18 145 115)"/><path d="M105 92h80M105 115h64M105 138h80" stroke="#A5432D" stroke-width="11" stroke-linecap="round"/><text x="42" y="223" font-family="Arial Narrow,Arial,sans-serif" font-size="40" font-weight="900" letter-spacing="1.6" fill="#191817">EL ERRANTE</text><text x="52" y="262" font-family="Arial,Helvetica,sans-serif" font-size="16" font-weight="700" letter-spacing="3" fill="#66645D">EN CASA</text><path d="M45 302h200" stroke="#C5A36A" stroke-width="8" stroke-linecap="round"/></g>
<g transform="translate(270 360) rotate(-5 330 230)" filter="url(#s)"><ellipse cx="340" cy="250" rx="335" ry="225" fill="#15110f" opacity=".45"/><ellipse cx="330" cy="220" rx="310" ry="215" fill="url(#crust)"/><ellipse cx="330" cy="220" rx="260" ry="172" fill="#a33f30"/><g fill="#F2ECE1"><ellipse cx="210" cy="165" rx="63" ry="42"/><ellipse cx="370" cy="128" rx="58" ry="40"/><ellipse cx="460" cy="250" rx="65" ry="43"/><ellipse cx="278" cy="290" rx="61" ry="39"/></g><g fill="#7E2F20"><circle cx="275" cy="120" r="31"/><circle cx="430" cy="175" r="34"/><circle cx="215" cy="270" r="30"/><circle cx="405" cy="315" r="32"/></g><g fill="#49633c"><ellipse cx="180" cy="225" rx="12" ry="28" transform="rotate(-28 180 225)"/><ellipse cx="340" cy="215" rx="12" ry="28" transform="rotate(47 340 215)"/><ellipse cx="485" cy="145" rx="12" ry="28" transform="rotate(18 485 145)"/></g><path d="M110 215c120-65 280-75 430 5" fill="none" stroke="#f2c77e" stroke-width="10" opacity=".45"/></g>
<g fill="#F2ECE1" opacity=".55"><circle cx="265" cy="565" r="4"/><circle cx="315" cy="615" r="3"/><circle cx="360" cy="550" r="4"/><circle cx="680" cy="615" r="4"/><circle cx="745" cy="560" r="3"/></g>
</svg>
